<?xml version="1.0" standalone="no"?>
<!DOCTYPE svg PUBLIC "-//W3C//DTD SVG 20010904//EN"
 "http://www.w3.org/TR/2001/REC-SVG-20010904/DTD/svg10.dtd">
<svg version="1.0" xmlns="http://www.w3.org/2000/svg"
 width="556.000000pt" height="555.000000pt" viewBox="0 0 556.000000 555.000000"
 preserveAspectRatio="xMidYMid meet">
<metadata>
Created by potrace 1.16, written by Peter Selinger 2001-2019
</metadata>
<g transform="translate(0.000000,555.000000) scale(0.100000,-0.100000)"
fill="#000000" stroke="none">
<path d="M2564 5370 c-718 -70 -1358 -408 -1808 -955 -643 -781 -785 -1851
-368 -2771 138 -307 321 -564 573 -809 778 -755 1936 -955 2929 -506 283 128
515 288 749 515 422 411 681 918 773 1511 31 201 31 559 0 760 -92 594 -351
1099 -773 1511 -63 60 -148 137 -189 170 -367 295 -801 484 -1274 555 -151 23
-472 33 -612 19z m484 -895 c306 -50 587 -210 738 -421 100 -140 175 -350 206
-579 10 -74 13 -250 13 -680 0 -517 -2 -592 -18 -689 -54 -316 -174 -561 -377
-767 -223 -226 -482 -338 -821 -356 -135 -7 -234 5 -401 49 l-118 31 0 408 0
409 48 -24 c223 -113 477 -95 626 45 73 68 117 144 148 256 21 75 22 101 26
611 4 559 0 632 -39 723 -25 58 -91 121 -145 140 -65 22 -181 17 -239 -11 -64
-31 -134 -101 -165 -165 -35 -70 -35 -187 -1 -262 44 -98 144 -168 258 -179
53 -5 81 0 181 31 l22 7 0 -406 0 -406 -27 -11 c-110 -42 -179 -53 -348 -53
-144 0 -182 4 -250 22 -169 47 -323 141 -452 275 -236 247 -337 547 -311 925
25 356 218 681 528 887 150 101 300 160 480 190 105 18 327 18 438 0z"/>
</g>
</svg>
