<?xml version="1.0" encoding="UTF-8"?>
<svg xmlns="http://www.w3.org/2000/svg" xmlns:xlink="http://www.w3.org/1999/xlink" viewBox="0 0 384 384" width="384px" height="384px">
<g id="surface26993950">
<path style=" stroke:none;fill-rule:nonzero;fill:rgb(0.784314%,24.313726%,54.11765%);fill-opacity:1;" d="M 174.398438 33.601562 C 100.800781 41.601562 41.601562 100.800781 33.601562 172.800781 C 24 252.800781 73.601562 321.601562 144 344 L 144 307.199219 C 144 307.199219 137.601562 308.800781 129.601562 308.800781 C 107.199219 308.800781 97.601562 289.601562 96 278.398438 C 94.398438 272 91.199219 267.199219 86.398438 262.398438 C 81.601562 260.800781 80 260.800781 80 259.199219 C 80 256 84.800781 256 86.398438 256 C 96 256 104 267.199219 107.199219 272 C 115.199219 284.800781 124.800781 288 129.601562 288 C 136 288 140.800781 286.398438 144 284.800781 C 145.601562 273.601562 150.398438 262.398438 160 256 C 123.199219 248 96 227.199219 96 192 C 96 174.398438 104 156.800781 115.199219 144 C 113.601562 140.800781 112 132.800781 112 121.601562 C 112 115.199219 112 105.601562 116.800781 96 C 116.800781 96 139.199219 96 161.601562 116.800781 C 169.601562 113.601562 180.800781 112 192 112 C 203.199219 112 214.398438 113.601562 224 116.800781 C 244.800781 96 268.800781 96 268.800781 96 C 272 105.601562 272 115.199219 272 121.601562 C 272 134.398438 270.398438 140.800781 268.800781 144 C 280 156.800781 288 172.800781 288 192 C 288 227.199219 260.800781 248 224 256 C 233.601562 264 240 278.398438 240 292.800781 L 240 345.601562 C 305.601562 324.800781 352 264 352 193.601562 C 352 97.601562 270.398438 22.398438 174.398438 33.601562 Z M 174.398438 33.601562 "/>
</g>
</svg>
