<?xml version="1.0" encoding="UTF-8"?>
<svg xmlns="http://www.w3.org/2000/svg" xmlns:xlink="http://www.w3.org/1999/xlink" viewBox="0 0 100 100" width="100px" height="100px">
<g id="surface29407091">
<path style=" stroke:none;fill-rule:nonzero;fill:rgb(0.784314%,24.313726%,54.11765%);fill-opacity:1;" d="M 45.417969 8.75 C 26.25 10.832031 10.832031 26.25 8.75 45 C 6.25 65.832031 19.167969 83.75 37.5 89.582031 L 37.5 80 C 37.5 80 35.832031 80.417969 33.75 80.417969 C 27.917969 80.417969 25.417969 75.417969 25 72.5 C 24.582031 70.832031 23.75 69.582031 22.5 68.332031 C 21.25 67.917969 20.832031 67.917969 20.832031 67.5 C 20.832031 66.667969 22.082031 66.667969 22.5 66.667969 C 25 66.667969 27.082031 69.582031 27.917969 70.832031 C 30 74.167969 32.5 75 33.75 75 C 35.417969 75 36.667969 74.582031 37.5 74.167969 C 37.917969 71.25 39.167969 68.332031 41.667969 66.667969 C 32.082031 64.582031 25 59.167969 25 50 C 25 45.417969 27.082031 40.832031 30 37.5 C 29.582031 36.667969 29.167969 34.582031 29.167969 31.667969 C 29.167969 30 29.167969 27.5 30.417969 25 C 30.417969 25 36.25 25 42.082031 30.417969 C 44.167969 29.582031 47.082031 29.167969 50 29.167969 C 52.917969 29.167969 55.832031 29.582031 58.332031 30.417969 C 63.75 25 70 25 70 25 C 70.832031 27.5 70.832031 30 70.832031 31.667969 C 70.832031 35 70.417969 36.667969 70 37.5 C 72.917969 40.832031 75 45 75 50 C 75 59.167969 67.917969 64.582031 58.332031 66.667969 C 60.832031 68.75 62.5 72.5 62.5 76.25 L 62.5 90 C 79.582031 84.582031 91.667969 68.75 91.667969 50.417969 C 91.667969 25.417969 70.417969 5.832031 45.417969 8.75 Z M 45.417969 8.75 "/>
</g>
</svg>
