<?xml version="1.0" encoding="UTF-8"?>
<svg xmlns="http://www.w3.org/2000/svg" xmlns:xlink="http://www.w3.org/1999/xlink" viewBox="0 0 100 100" width="100px" height="100px">
<g id="surface29409048">
<path style=" stroke:none;fill-rule:nonzero;fill:rgb(0.784314%,24.313726%,54.11765%);fill-opacity:1;" d="M 33.332031 12.5 C 21.828125 12.5 12.5 21.828125 12.5 33.332031 L 12.5 66.667969 C 12.5 78.171875 21.828125 87.5 33.332031 87.5 L 66.667969 87.5 C 78.171875 87.5 87.5 78.171875 87.5 66.667969 L 87.5 33.332031 C 87.5 21.828125 78.171875 12.5 66.667969 12.5 Z M 75 20.832031 C 77.300781 20.832031 79.167969 22.699219 79.167969 25 C 79.167969 27.300781 77.300781 29.167969 75 29.167969 C 72.699219 29.167969 70.832031 27.300781 70.832031 25 C 70.832031 22.699219 72.699219 20.832031 75 20.832031 Z M 50 29.167969 C 61.503906 29.167969 70.832031 38.496094 70.832031 50 C 70.832031 61.503906 61.503906 70.832031 50 70.832031 C 38.496094 70.832031 29.167969 61.503906 29.167969 50 C 29.167969 38.496094 38.496094 29.167969 50 29.167969 Z M 50 37.5 C 43.097656 37.5 37.5 43.097656 37.5 50 C 37.5 56.902344 43.097656 62.5 50 62.5 C 56.902344 62.5 62.5 56.902344 62.5 50 C 62.5 43.097656 56.902344 37.5 50 37.5 Z M 50 37.5 "/>
</g>
</svg>
