<?xml version="1.0" encoding="UTF-8"?>
<svg xmlns="http://www.w3.org/2000/svg" xmlns:xlink="http://www.w3.org/1999/xlink" viewBox="0 0 100 100" width="100px" height="100px">
<g id="surface29406537">
<path style=" stroke:none;fill-rule:nonzero;fill:rgb(0.784314%,24.313726%,54.11765%);fill-opacity:1;" d="M 100 17.917969 C 96.257812 19.578125 92.496094 20.832031 88.332031 21.257812 C 92.496094 18.75 95.832031 14.582031 97.492188 9.992188 C 93.328125 12.5 89.160156 14.160156 84.585938 15.007812 C 80.417969 10.839844 75 8.332031 69.171875 8.332031 C 57.910156 8.332031 48.746094 17.496094 48.746094 28.742188 C 48.746094 30.417969 48.746094 32.078125 49.167969 33.332031 C 32.078125 32.503906 17.089844 24.578125 7.078125 12.078125 C 4.996094 15.007812 4.167969 18.75 4.167969 22.492188 C 4.167969 29.589844 7.910156 35.839844 13.328125 39.582031 C 9.992188 39.160156 6.671875 38.332031 4.167969 37.078125 C 4.167969 37.078125 4.167969 37.078125 4.167969 37.5 C 4.167969 47.492188 11.246094 55.828125 20.410156 57.503906 C 18.75 57.910156 17.089844 58.332031 15.007812 58.332031 C 13.753906 58.332031 12.5 58.332031 11.246094 57.910156 C 13.753906 66.242188 21.257812 72.085938 30.417969 72.085938 C 23.339844 77.507812 14.582031 80.828125 4.996094 80.828125 C 3.335938 80.828125 1.660156 80.828125 0 80.421875 C 9.164062 86.246094 20.003906 89.582031 31.25 89.582031 C 69.171875 89.582031 89.582031 58.332031 89.582031 31.25 C 89.582031 30.421875 89.582031 29.589844 89.582031 28.742188 C 93.75 25.832031 97.085938 22.085938 100 17.921875 "/>
</g>
</svg>
